<svg id="Layer_1" data-name="Layer 1" xmlns="http://www.w3.org/2000/svg" viewBox="0 0 255.89 42.1"><defs><style>.cls-1,.cls-4{fill:#4c4c4c;}.cls-2,.cls-3{fill:#4c4c4c;}.cls-3,.cls-4{fill-rule:evenodd;}</style></defs><title>262x58_Complyscreen_Banner</title><path class="cls-1" d="M49.41,26.12a7.31,7.31,0,0,1,.43-2.46,6.83,6.83,0,0,1,1.27-2.2,6.4,6.4,0,0,1,2.05-1.57,6.15,6.15,0,0,1,2.75-.6,5.75,5.75,0,0,1,3.14.83A5.15,5.15,0,0,1,61,22.29l-1.37.89a4,4,0,0,0-.74-1.1,3.82,3.82,0,0,0-.94-.71,4.06,4.06,0,0,0-1-.39,5,5,0,0,0-1.06-.12,4.18,4.18,0,0,0-2,.47,4.65,4.65,0,0,0-1.47,1.23,5.33,5.33,0,0,0-.9,1.71,6.37,6.37,0,0,0-.3,1.92,5.92,5.92,0,0,0,.36,2.05,5.66,5.66,0,0,0,1,1.72A4.82,4.82,0,0,0,54,31.17a4.08,4.08,0,0,0,1.89.44A4.77,4.77,0,0,0,57,31.48,4,4,0,0,0,58.1,31a4.64,4.64,0,0,0,1-.75,3.67,3.67,0,0,0,.74-1.09l1.44.79a4.26,4.26,0,0,1-.91,1.36,5.79,5.79,0,0,1-1.33,1,6.77,6.77,0,0,1-1.57.62,6.51,6.51,0,0,1-1.62.21,5.46,5.46,0,0,1-2.58-.62,6.88,6.88,0,0,1-2-1.61,7.49,7.49,0,0,1-1.8-4.83Z" transform="translate(-1.07 -5.19)"/><path class="cls-1" d="M69.34,33.15a5.83,5.83,0,0,1-2.63-.59,6.48,6.48,0,0,1-2-1.56,7.09,7.09,0,0,1-1.31-2.23,7.35,7.35,0,0,1-.46-2.56,7.12,7.12,0,0,1,.49-2.62,7.23,7.23,0,0,1,1.36-2.22,6.53,6.53,0,0,1,2.05-1.53,5.87,5.87,0,0,1,2.57-.57,5.62,5.62,0,0,1,2.62.61,6.71,6.71,0,0,1,2,1.59,7.38,7.38,0,0,1,1.77,4.76,7.11,7.11,0,0,1-.49,2.62A7.19,7.19,0,0,1,74,31.06a6.48,6.48,0,0,1-2,1.52A5.86,5.86,0,0,1,69.34,33.15Zm-4.68-6.94a6.11,6.11,0,0,0,.34,2A5.56,5.56,0,0,0,66,30a4.61,4.61,0,0,0,1.48,1.19,4.16,4.16,0,0,0,1.93.44,4,4,0,0,0,2-.47,4.79,4.79,0,0,0,1.47-1.23,5.5,5.5,0,0,0,.92-1.72A6.18,6.18,0,0,0,74,26.22a6.12,6.12,0,0,0-.34-2,5.35,5.35,0,0,0-1-1.71,4.82,4.82,0,0,0-1.48-1.19,4.34,4.34,0,0,0-3.86,0,4.74,4.74,0,0,0-1.47,1.21A5.54,5.54,0,0,0,65,24.25,6.06,6.06,0,0,0,64.66,26.22Z" transform="translate(-1.07 -5.19)"/><path class="cls-1" d="M90.52,33.06V22.48L86,30.59H85l-4.56-8.11V33.06H78.7V19.38h1.83l4.95,8.88,5-8.88h1.81V33.06Z" transform="translate(-1.07 -5.19)"/><path class="cls-1" d="M96,33.06V19.38h5.7a3.71,3.71,0,0,1,1.67.38,4.19,4.19,0,0,1,1.31,1,4.78,4.78,0,0,1,.86,1.41,4.3,4.3,0,0,1,.31,1.59,4.74,4.74,0,0,1-.29,1.64,4.52,4.52,0,0,1-.82,1.41,4,4,0,0,1-1.27,1,3.66,3.66,0,0,1-1.65.37H97.74v4.91Zm1.73-6.45h4a2.1,2.1,0,0,0,1-.22,2.2,2.2,0,0,0,.74-.62,3,3,0,0,0,.48-.92,3.45,3.45,0,0,0,.17-1.1,3.07,3.07,0,0,0-.74-2,2.39,2.39,0,0,0-.79-.6,2.22,2.22,0,0,0-1-.21H97.74Z" transform="translate(-1.07 -5.19)"/><path class="cls-1" d="M108.44,33.06V19.38h1.73V31.52h7.62v1.54Z" transform="translate(-1.07 -5.19)"/><path class="cls-1" d="M119.45,19.38l4.14,7.13,4.18-7.13h1.89l-5.2,8.69v5h-1.73V28l-5.18-8.65Z" transform="translate(-1.07 -5.19)"/><path class="cls-1" d="M146,22.25a2.86,2.86,0,0,0-.62-.52,5.53,5.53,0,0,0-.87-.45,6.12,6.12,0,0,0-1-.33,5.49,5.49,0,0,0-1.18-.13,3.72,3.72,0,0,0-2.34.6,2,2,0,0,0-.74,1.64,1.82,1.82,0,0,0,.21.93,1.74,1.74,0,0,0,.66.63,5.05,5.05,0,0,0,1.13.45q.67.19,1.6.4a16.68,16.68,0,0,1,1.92.53,5.59,5.59,0,0,1,1.46.74,3,3,0,0,1,.92,1.08,3.47,3.47,0,0,1,.32,1.56,3.58,3.58,0,0,1-.39,1.71,3.42,3.42,0,0,1-1,1.19,4.53,4.53,0,0,1-1.57.69,8.25,8.25,0,0,1-2,.22,9.06,9.06,0,0,1-3-.49,8.37,8.37,0,0,1-2.57-1.44l.83-1.46a4.57,4.57,0,0,0,.8.66,6.49,6.49,0,0,0,1.12.59,8.23,8.23,0,0,0,1.35.42,6.81,6.81,0,0,0,1.51.16,4.19,4.19,0,0,0,2.27-.52,1.92,1.92,0,0,0,.55-2.53,2.21,2.21,0,0,0-.76-.68,5.86,5.86,0,0,0-1.24-.51q-.74-.22-1.68-.45a16.79,16.79,0,0,1-1.83-.54,5,5,0,0,1-1.32-.69,2.62,2.62,0,0,1-.8-1,3.26,3.26,0,0,1-.27-1.39,3.91,3.91,0,0,1,.37-1.73,3.64,3.64,0,0,1,1-1.27,4.45,4.45,0,0,1,1.56-.78,7.09,7.09,0,0,1,2-.26,6.87,6.87,0,0,1,4.49,1.56Z" transform="translate(-1.07 -5.19)"/><path class="cls-1" d="M149.35,26.12a7.31,7.31,0,0,1,.43-2.46,6.83,6.83,0,0,1,1.27-2.2,6.4,6.4,0,0,1,2.05-1.57,6.15,6.15,0,0,1,2.75-.6,5.75,5.75,0,0,1,3.14.83,5.15,5.15,0,0,1,1.94,2.16l-1.37.89a4,4,0,0,0-.74-1.1,3.82,3.82,0,0,0-.94-.71,4.06,4.06,0,0,0-1-.39,5,5,0,0,0-1.06-.12,4.18,4.18,0,0,0-2,.47,4.65,4.65,0,0,0-1.47,1.23,5.33,5.33,0,0,0-.9,1.71,6.37,6.37,0,0,0-.3,1.92,5.92,5.92,0,0,0,.36,2.05,5.66,5.66,0,0,0,1,1.72,4.82,4.82,0,0,0,1.5,1.19,4.08,4.08,0,0,0,1.89.44,4.77,4.77,0,0,0,1.11-.13A4,4,0,0,0,158,31a4.64,4.64,0,0,0,1-.75,3.67,3.67,0,0,0,.74-1.09l1.44.79a4.26,4.26,0,0,1-.91,1.36,5.79,5.79,0,0,1-1.33,1,6.77,6.77,0,0,1-1.57.62,6.51,6.51,0,0,1-1.62.21,5.46,5.46,0,0,1-2.58-.62,6.88,6.88,0,0,1-2-1.61,7.49,7.49,0,0,1-1.8-4.83Z" transform="translate(-1.07 -5.19)"/><path class="cls-1" d="M163.85,33.06V19.38h5.85a3.71,3.71,0,0,1,1.67.38,4.19,4.19,0,0,1,1.31,1,4.78,4.78,0,0,1,.86,1.41,4.29,4.29,0,0,1,.31,1.59,4.71,4.71,0,0,1-.2,1.38,4.26,4.26,0,0,1-.58,1.2,3.87,3.87,0,0,1-.9.92,3.54,3.54,0,0,1-1.18.56l3.31,5.24h-2l-3.12-4.91h-3.62v4.91Zm1.73-6.45h4.14a2,2,0,0,0,1-.23,2.32,2.32,0,0,0,.74-.63,3,3,0,0,0,.48-.92,3.39,3.39,0,0,0,.17-1.08,2.93,2.93,0,0,0-.2-1.09,3.2,3.2,0,0,0-.54-.91,2.45,2.45,0,0,0-.79-.62,2.14,2.14,0,0,0-1-.22h-4Z" transform="translate(-1.07 -5.19)"/><path class="cls-1" d="M186.39,31.52v1.54h-9.28V19.38h9.11v1.54h-7.37v4.43h6.41v1.44h-6.41v4.72Z" transform="translate(-1.07 -5.19)"/><path class="cls-1" d="M198.23,31.52v1.54H189V19.38h9.11v1.54h-7.37v4.43h6.41v1.44h-6.41v4.72Z" transform="translate(-1.07 -5.19)"/><path class="cls-1" d="M202.91,22.61V33.06h-1.73V19.38h1.35L211,30V19.4h1.73V33.06h-1.46Z" transform="translate(-1.07 -5.19)"/><path class="cls-2" d="M220.9,33.06l5.62-13.68h1.42l5.6,13.68H231.7l-1.62-4h-5.74l-1.6,4Zm6.33-11.68-2.54,6.32h5Z" transform="translate(-1.07 -5.19)"/><path class="cls-2" d="M245.35,20.92h-4.72V33.06H238.9V20.92h-4.72V19.38h11.17Z" transform="translate(-1.07 -5.19)"/><path class="cls-2" d="M255.53,22.25a2.87,2.87,0,0,0-.62-.52,5.55,5.55,0,0,0-.87-.45,6.12,6.12,0,0,0-1-.33,5.49,5.49,0,0,0-1.18-.13,3.72,3.72,0,0,0-2.34.6,2,2,0,0,0-.74,1.64,1.82,1.82,0,0,0,.21.93,1.74,1.74,0,0,0,.66.63,5,5,0,0,0,1.13.45q.67.19,1.6.4a16.66,16.66,0,0,1,1.92.53,5.59,5.59,0,0,1,1.46.74,3,3,0,0,1,.92,1.08,3.46,3.46,0,0,1,.32,1.56,3.58,3.58,0,0,1-.39,1.71,3.41,3.41,0,0,1-1,1.19A4.53,4.53,0,0,1,254,33a8.25,8.25,0,0,1-2,.22,9.06,9.06,0,0,1-3-.49,8.36,8.36,0,0,1-2.57-1.44l.83-1.46a4.55,4.55,0,0,0,.8.66,6.49,6.49,0,0,0,1.12.59,8.25,8.25,0,0,0,1.35.42,6.81,6.81,0,0,0,1.51.16,4.19,4.19,0,0,0,2.27-.52,1.93,1.93,0,0,0,.55-2.53,2.21,2.21,0,0,0-.76-.68,5.87,5.87,0,0,0-1.24-.51q-.74-.22-1.68-.45a16.75,16.75,0,0,1-1.83-.54A5,5,0,0,1,248,25.7a2.62,2.62,0,0,1-.8-1,3.26,3.26,0,0,1-.27-1.39,3.92,3.92,0,0,1,.37-1.73,3.64,3.64,0,0,1,1-1.27,4.45,4.45,0,0,1,1.56-.78,7.09,7.09,0,0,1,2-.26,6.88,6.88,0,0,1,4.49,1.56Z" transform="translate(-1.07 -5.19)"/><path class="cls-3" d="M27.3,30.61a1.46,1.46,0,0,1,2.23,1.88,9.71,9.71,0,1,1,0-12.51,1.46,1.46,0,1,1-2.23,1.88,6.79,6.79,0,1,0,0,8.75Z" transform="translate(-1.07 -5.19)"/><path class="cls-4" d="M18.75,14.24A1.46,1.46,0,1,1,18,11.43,15.33,15.33,0,0,1,20,11a15.16,15.16,0,0,1,4.24,0,15.28,15.28,0,0,1,2.1.44,1.46,1.46,0,1,1-.8,2.81,12.39,12.39,0,0,0-1.7-.36,13,13,0,0,0-3.45,0,12.35,12.35,0,0,0-1.66.35Zm11.52,2.58a12.46,12.46,0,1,1-16.92.57,1.46,1.46,0,0,0-2.06-2.07,15.38,15.38,0,1,0,20.89-.71,1.46,1.46,0,1,0-1.91,2.2Z" transform="translate(-1.07 -5.19)"/><path class="cls-4" d="M12.26,11a1.46,1.46,0,0,1-1.59-2.44A21.07,21.07,0,0,1,31.1,7.2a1.46,1.46,0,1,1-1.24,2.64,18,18,0,0,0-3.76-1.3,18.43,18.43,0,0,0-9.13.3A18,18,0,0,0,12.26,11Zm22,1.74a1.46,1.46,0,0,1,2-2.17A21,21,0,0,1,37,41.13a1.46,1.46,0,0,1-2.06-2.07,18.11,18.11,0,0,0-.69-26.31Zm-6.7,30.79a1.46,1.46,0,0,1,.87,2.79,20.93,20.93,0,0,1-3.1.72,21.12,21.12,0,0,1-8.84-.53,20.94,20.94,0,0,1-5.24-2.27,1.46,1.46,0,1,1,1.51-2.49,18,18,0,0,0,9.39,2.61,18.31,18.31,0,0,0,2.75-.21,18,18,0,0,0,2.67-.61Zm-17.72-4A18.13,18.13,0,0,1,9.41,13.3a1.46,1.46,0,1,0-2-2.08A21,21,0,0,0,7.84,41.7a1.46,1.46,0,1,0,2-2.15Z" transform="translate(-1.07 -5.19)"/></svg>